<svg xmlns="http://www.w3.org/2000/svg" xmlns:xlink="http://www.w3.org/1999/xlink" contentStyleType="text/css" data-diagram-type="DESCRIPTION" height="629px" preserveAspectRatio="none" style="width:584px;height:629px;background:#FFFFFF;" version="1.1" viewBox="0 0 584 629" width="584px" zoomAndPan="magnify"><title>Diagramme de deploiement &#8212; Architecture Docker Compose</title><defs/><g><g class="title" data-source-line="1"><text fill="#000000" font-family="sans-serif" font-size="14" font-weight="bold" lengthAdjust="spacing" textLength="478.208" x="45.896" y="22.9951">Diagramme de deploiement &#8212; Architecture Docker Compose</text></g><!--cluster Client--><g class="cluster" data-entity="Client" data-source-line="3" data-uid="ent0002" id="cluster_Client"><polygon fill="none" points="16,53.2969,26,43.2969,371,43.2969,371,135.5969,361,145.5969,16,145.5969,16,53.2969" style="stroke:#181818;stroke-width:1;"/><line style="stroke:#181818;stroke-width:1;" x1="361" x2="371" y1="53.2969" y2="43.2969"/><line style="stroke:#181818;stroke-width:1;" x1="16" x2="361" y1="53.2969" y2="53.2969"/><line style="stroke:#181818;stroke-width:1;" x1="361" x2="361" y1="53.2969" y2="145.5969"/><text fill="#000000" font-family="sans-serif" font-size="14" font-weight="bold" lengthAdjust="spacing" textLength="46.0264" x="166.4868" y="69.292">Client</text></g><!--cluster Docker Host--><g class="cluster" data-entity="Docker Host" data-source-line="8" data-uid="ent0005" id="cluster_Docker Host"><polygon fill="none" points="77,204.5969,87,194.5969,567,194.5969,567,602.4869,557,612.4869,77,612.4869,77,204.5969" style="stroke:#181818;stroke-width:1;"/><line style="stroke:#181818;stroke-width:1;" x1="557" x2="567" y1="204.5969" y2="194.5969"/><line style="stroke:#181818;stroke-width:1;" x1="77" x2="557" y1="204.5969" y2="204.5969"/><line style="stroke:#181818;stroke-width:1;" x1="557" x2="557" y1="204.5969" y2="612.4869"/><text fill="#000000" font-family="sans-serif" font-size="14" font-weight="bold" lengthAdjust="spacing" textLength="96.4824" x="269.7588" y="220.592">Docker Host</text></g><!--cluster log430-client--><g class="cluster" data-entity="log430-client" data-source-line="9" data-uid="ent0006" id="cluster_log430-client"><polygon fill="none" points="101,252.5969,111,242.5969,309,242.5969,309,334.8969,299,344.8969,101,344.8969,101,252.5969" style="stroke:#181818;stroke-width:1;"/><line style="stroke:#181818;stroke-width:1;" x1="299" x2="309" y1="252.5969" y2="242.5969"/><line style="stroke:#181818;stroke-width:1;" x1="101" x2="299" y1="252.5969" y2="252.5969"/><line style="stroke:#181818;stroke-width:1;" x1="299" x2="299" y1="252.5969" y2="344.8969"/><text fill="#000000" font-family="sans-serif" font-size="14" font-weight="bold" lengthAdjust="spacing" textLength="103.5234" x="149.2383" y="268.592">log430-client</text></g><!--cluster log430-server--><g class="cluster" data-entity="log430-server" data-source-line="12" data-uid="ent0008" id="cluster_log430-server"><polygon fill="none" points="333,252.5969,343,242.5969,543,242.5969,543,444.1869,533,454.1869,333,454.1869,333,252.5969" style="stroke:#181818;stroke-width:1;"/><line style="stroke:#181818;stroke-width:1;" x1="533" x2="543" y1="252.5969" y2="242.5969"/><line style="stroke:#181818;stroke-width:1;" x1="333" x2="533" y1="252.5969" y2="252.5969"/><line style="stroke:#181818;stroke-width:1;" x1="533" x2="533" y1="252.5969" y2="454.1869"/><text fill="#000000" font-family="sans-serif" font-size="14" font-weight="bold" lengthAdjust="spacing" textLength="109.7305" x="379.1348" y="268.592">log430-server</text></g><!--cluster magasin-db--><g class="cluster" data-entity="magasin-db" data-source-line="16" data-uid="ent0011" id="cluster_magasin-db"><polygon fill="none" points="354,497.1869,364,487.1869,522,487.1869,522,578.4869,512,588.4869,354,588.4869,354,497.1869" style="stroke:#181818;stroke-width:1;"/><line style="stroke:#181818;stroke-width:1;" x1="512" x2="522" y1="497.1869" y2="487.1869"/><line style="stroke:#181818;stroke-width:1;" x1="354" x2="512" y1="497.1869" y2="497.1869"/><line style="stroke:#181818;stroke-width:1;" x1="512" x2="512" y1="497.1869" y2="588.4869"/><text fill="#000000" font-family="sans-serif" font-size="14" font-weight="bold" lengthAdjust="spacing" textLength="92.4561" x="387.772" y="513.182">magasin-db</text></g><!--entity Navigateur Web--><g class="entity" data-entity="Navigateur Web" data-source-line="4" data-uid="ent0003" id="entity_Navigateur Web"><rect fill="#F1F1F1" height="39.2969" rx="2.5" ry="2.5" style="stroke:#181818;stroke-width:0.5;" width="143.2168" x="32.39" y="86.7969"/><polygon fill="#F1F1F1" points="158.6068,91.7969,158.6068,105.7969,170.6068,105.7969,170.6068,97.7969,164.6068,91.7969,158.6068,91.7969" style="stroke:#181818;stroke-width:0.5;"/><line style="stroke:#181818;stroke-width:0.5;" x1="164.6068" x2="164.6068" y1="91.7969" y2="97.7969"/><line style="stroke:#181818;stroke-width:0.5;" x1="170.6068" x2="164.6068" y1="97.7969" y2="97.7969"/><text fill="#000000" font-family="sans-serif" font-size="14" lengthAdjust="spacing" textLength="113.2168" x="42.39" y="112.792">Navigateur Web</text></g><!--entity React Vite App--><g class="entity" data-entity="React Vite App" data-source-line="5" data-uid="ent0004" id="entity_React Vite App"><rect fill="#F1F1F1" height="46.2969" rx="2.5" ry="2.5" style="stroke:#181818;stroke-width:0.5;" width="143.9268" x="211.04" y="83.2969"/><rect fill="#F1F1F1" height="10" style="stroke:#181818;stroke-width:0.5;" width="15" x="334.9668" y="88.2969"/><rect fill="#F1F1F1" height="2" style="stroke:#181818;stroke-width:0.5;" width="4" x="332.9668" y="90.2969"/><rect fill="#F1F1F1" height="2" style="stroke:#181818;stroke-width:0.5;" width="4" x="332.9668" y="94.2969"/><text fill="#000000" font-family="sans-serif" font-size="14" lengthAdjust="spacing" textLength="103.9268" x="226.04" y="116.292">React Vite App</text></g><!--entity Nginx Static Server--><g class="entity" data-entity="Nginx Static Server" data-source-line="10" data-uid="ent0007" id="entity_Nginx Static Server"><rect fill="#F1F1F1" height="46.2969" rx="2.5" ry="2.5" style="stroke:#181818;stroke-width:0.5;" width="175.249" x="117.38" y="282.5969"/><rect fill="#F1F1F1" height="10" style="stroke:#181818;stroke-width:0.5;" width="15" x="272.629" y="287.5969"/><rect fill="#F1F1F1" height="2" style="stroke:#181818;stroke-width:0.5;" width="4" x="270.629" y="289.5969"/><rect fill="#F1F1F1" height="2" style="stroke:#181818;stroke-width:0.5;" width="4" x="270.629" y="293.5969"/><text fill="#000000" font-family="sans-serif" font-size="14" lengthAdjust="spacing" textLength="135.249" x="132.38" y="315.592">Nginx Static Server</text></g><!--entity Node.js Express API--><g class="entity" data-entity="Node.js Express API" data-source-line="13" data-uid="ent0009" id="entity_Node.js Express API"><rect fill="#F1F1F1" height="46.2969" rx="2.5" ry="2.5" style="stroke:#181818;stroke-width:0.5;" width="178.1953" x="348.9" y="282.5969"/><rect fill="#F1F1F1" height="10" style="stroke:#181818;stroke-width:0.5;" width="15" x="507.0953" y="287.5969"/><rect fill="#F1F1F1" height="2" style="stroke:#181818;stroke-width:0.5;" width="4" x="505.0953" y="289.5969"/><rect fill="#F1F1F1" height="2" style="stroke:#181818;stroke-width:0.5;" width="4" x="505.0953" y="293.5969"/><text fill="#000000" font-family="sans-serif" font-size="14" lengthAdjust="spacing" textLength="138.1953" x="363.9" y="315.592">Node.js Express API</text></g><!--entity Prisma Client--><g class="entity" data-entity="Prisma Client" data-source-line="14" data-uid="ent0010" id="entity_Prisma Client"><rect fill="#F1F1F1" height="46.2969" rx="2.5" ry="2.5" style="stroke:#181818;stroke-width:0.5;" width="132.5791" x="371.71" y="391.8969"/><rect fill="#F1F1F1" height="10" style="stroke:#181818;stroke-width:0.5;" width="15" x="484.2891" y="396.8969"/><rect fill="#F1F1F1" height="2" style="stroke:#181818;stroke-width:0.5;" width="4" x="482.2891" y="398.8969"/><rect fill="#F1F1F1" height="2" style="stroke:#181818;stroke-width:0.5;" width="4" x="482.2891" y="402.8969"/><text fill="#000000" font-family="sans-serif" font-size="14" lengthAdjust="spacing" textLength="92.5791" x="386.71" y="424.892">Prisma Client</text></g><!--entity DB--><g class="entity" data-entity="DB" data-source-line="17" data-uid="ent0012" id="entity_DB"><path d="M387.62,537.1869 C387.62,527.1869 437.9965,527.1869 437.9965,527.1869 C437.9965,527.1869 488.3729,527.1869 488.3729,537.1869 L488.3729,562.4838 C488.3729,572.4838 437.9965,572.4838 437.9965,572.4838 C437.9965,572.4838 387.62,572.4838 387.62,562.4838 L387.62,537.1869" fill="#F1F1F1" style="stroke:#181818;stroke-width:0.5;"/><path d="M387.62,537.1869 C387.62,547.1869 437.9965,547.1869 437.9965,547.1869 C437.9965,547.1869 488.3729,547.1869 488.3729,537.1869" fill="none" style="stroke:#181818;stroke-width:0.5;"/><text fill="#000000" font-family="sans-serif" font-size="14" lengthAdjust="spacing" textLength="80.7529" x="397.62" y="564.182">PostgreSQL</text></g><!--link React Vite App to Nginx Static Server--><g class="link" data-entity-1="React Vite App" data-entity-2="Nginx Static Server" data-source-line="21" data-uid="lnk13" id="link_React Vite App_Nginx Static Server"><path d="M268.13,130.0269 C262.28,139.5169 255.83,150.8369 251,161.5969 C232.49,202.7869 219.5009,247.8702 212.0409,276.5402" fill="none" id="React Vite App-to-Nginx Static Server" style="stroke:#181818;stroke-width:1;"/><polygon fill="#181818" points="210.53,282.3469,216.6675,274.6442,211.7891,277.508,208.9253,272.6296,210.53,282.3469" style="stroke:#181818;stroke-width:1;"/><text fill="#000000" font-family="sans-serif" font-size="13" lengthAdjust="spacing" textLength="31.9668" x="252" y="174.6638">build</text></g><!--link React Vite App to Node.js Express API--><g class="link" data-entity-1="React Vite App" data-entity-2="Node.js Express API" data-source-line="22" data-uid="lnk14" id="link_React Vite App_Node.js Express API"><path d="M300.78,130.0769 C330.68,168.1369 386.9633,239.7788 416.7233,277.6588" fill="none" id="React Vite App-to-Node.js Express API" style="stroke:#181818;stroke-width:1;"/><polygon fill="#181818" points="420.43,282.3769,418.0153,272.8286,417.3411,278.4451,411.7245,277.7709,420.43,282.3769" style="stroke:#181818;stroke-width:1;"/><text fill="#000000" font-family="sans-serif" font-size="13" lengthAdjust="spacing" textLength="105.4727" x="338" y="174.6638">REST API (fetch)</text></g><!--link Node.js Express API to Prisma Client--><g class="link" data-entity-1="Node.js Express API" data-entity-2="Prisma Client" data-source-line="23" data-uid="lnk15" id="link_Node.js Express API_Prisma Client"><path d="M438,329.2369 C438,347.5469 438,367.2769 438,385.5769" fill="none" id="Node.js Express API-to-Prisma Client" style="stroke:#181818;stroke-width:1;"/><polygon fill="#181818" points="438,391.5769,442,382.5769,438,386.5769,434,382.5769,438,391.5769" style="stroke:#181818;stroke-width:1;"/></g><!--link Prisma Client to DB--><g class="link" data-entity-1="Prisma Client" data-entity-2="DB" data-source-line="24" data-uid="lnk16" id="link_Prisma Client_DB"><path d="M438,438.5669 C438,463.2869 438,496.6769 438,521.0869" fill="none" id="Prisma Client-to-DB" style="stroke:#181818;stroke-width:1;"/><polygon fill="#181818" points="438,527.0869,442,518.0869,438,522.0869,434,518.0869,438,527.0869" style="stroke:#181818;stroke-width:1;"/></g><!--SRC=[RO_1IiD054Nt-Of7Lhg82Bfo8QHDGK5AR4GNaiNBv7Kwcic4cPTQa88VuHVw9KwIbce8p69cxhs7UrbnHP0eb1Qr9YYxqrH6aQQQuUVh6s8hDef9S6kzquXtiZ0tkZ6EWg0sFX7EA-NT8Nm606XPhL4mX4lSAebChOKNAaAllQweKvuz3kAcoOFzaN3WtXbtm0pVbP7NLvUH-CFtbALKzGuoHbO2Ch9RihbNzkEOwwLJp6iNRmuMkyQISn2dz_cWf5OvZJ3C-8_IAD6fEYgB8wT4nWATrrBVLbhA7Xz2G0V9h4_wJUET49Nceuvkfwl33HIjgig9M1-PgEqZgqNsrDtXR4qiDkV1jB57ZFQDthqdcVq2]--></g></svg>