<svg xmlns="http://www.w3.org/2000/svg" xmlns:xlink="http://www.w3.org/1999/xlink" contentStyleType="text/css" data-diagram-type="DESCRIPTION" height="244px" preserveAspectRatio="none" style="width:1106px;height:244px;background:#FFFFFF;" version="1.1" viewBox="0 0 1106 244" width="1106px" zoomAndPan="magnify"><title>Diagramme CU - Gestion d'un magasin</title><defs/><g><g class="title" data-source-line="1"><text fill="#000000" font-family="sans-serif" font-size="14" font-weight="bold" lengthAdjust="spacing" textLength="303.9736" x="394.2292" y="22.9951">Diagramme CU - Gestion d'un magasin</text></g><!--entity Client--><g class="entity" data-entity="Client" data-source-line="3" data-uid="ent0002" id="entity_Client"><ellipse cx="302.9951" cy="51.2969" fill="#F1F1F1" rx="8" ry="8" style="stroke:#181818;stroke-width:0.5;"/><path d="M302.9951,59.2969 L302.9951,86.2969 M289.9951,67.2969 L315.9951,67.2969 M302.9951,86.2969 L289.9951,101.2969 M302.9951,86.2969 L315.9951,101.2969" fill="none" style="stroke:#181818;stroke-width:0.5;"/><text fill="#000000" font-family="sans-serif" font-size="14" lengthAdjust="spacing" textLength="40.5303" x="282.73" y="115.792">Client</text></g><!--entity Gestionnaire--><g class="entity" data-entity="Gestionnaire" data-source-line="4" data-uid="ent0003" id="entity_Gestionnaire"><ellipse cx="707.9921" cy="51.2969" fill="#F1F1F1" rx="8" ry="8" style="stroke:#181818;stroke-width:0.5;"/><path d="M707.9921,59.2969 L707.9921,86.2969 M694.9921,67.2969 L720.9921,67.2969 M707.9921,86.2969 L694.9921,101.2969 M707.9921,86.2969 L720.9921,101.2969" fill="none" style="stroke:#181818;stroke-width:0.5;"/><text fill="#000000" font-family="sans-serif" font-size="14" lengthAdjust="spacing" textLength="89.2842" x="663.35" y="115.792">Gestionnaire</text></g><!--entity UC1--><g class="entity" data-entity="UC1" data-source-line="6" data-uid="ent0004" id="entity_UC1"><ellipse cx="506.993" cy="208.5835" fill="#F1F1F1" rx="79.383" ry="18.2766" style="stroke:#181818;stroke-width:0.5;"/><text fill="#000000" font-family="sans-serif" font-size="14" lengthAdjust="spacing" textLength="129.2197" x="442.3831" y="213.2319">Consulter produits</text></g><!--entity UC2--><g class="entity" data-entity="UC2" data-source-line="7" data-uid="ent0005" id="entity_UC2"><ellipse cx="91.994" cy="208.5918" fill="#F1F1F1" rx="85.994" ry="25.2249" style="stroke:#181818;stroke-width:0.5;"/><text fill="#000000" font-family="sans-serif" font-size="14" lengthAdjust="spacing" textLength="121.7139" x="31.137" y="206.2771">Ajouter au panier</text><text fill="#000000" font-family="sans-serif" font-size="14" lengthAdjust="spacing" textLength="102.4912" x="40.7483" y="222.574">(valider achat)</text></g><!--entity UC3--><g class="entity" data-entity="UC3" data-source-line="8" data-uid="ent0006" id="entity_UC3"><ellipse cx="302.9885" cy="208.5906" fill="#F1F1F1" rx="89.8185" ry="20.3637" style="stroke:#181818;stroke-width:0.5;"/><text fill="#000000" font-family="sans-serif" font-size="14" lengthAdjust="spacing" textLength="153.3301" x="226.3235" y="213.239">Voir historique achats</text></g><!--entity UC4--><g class="entity" data-entity="UC4" data-source-line="9" data-uid="ent0007" id="entity_UC4"><ellipse cx="707.9899" cy="208.5869" fill="#F1F1F1" rx="86.5499" ry="19.71" style="stroke:#181818;stroke-width:0.5;"/><text fill="#000000" font-family="sans-serif" font-size="14" lengthAdjust="spacing" textLength="145.8857" x="635.047" y="213.2353">Consulter dashboard</text></g><!--entity UC5--><g class="entity" data-entity="UC5" data-source-line="10" data-uid="ent0008" id="entity_UC5"><ellipse cx="964.986" cy="208.5861" fill="#F1F1F1" rx="135.446" ry="29.4892" style="stroke:#181818;stroke-width:0.5;"/><text fill="#000000" font-family="sans-serif" font-size="14" lengthAdjust="spacing" textLength="252.0479" x="838.9621" y="213.2345">Ajouter/modifier/supprimer produits</text></g><!--link Client to UC1--><g class="link" data-entity-1="Client" data-entity-2="UC1" data-source-line="12" data-uid="lnk9" id="link_Client_UC1"><path d="M323.68,94.6869 C360.85,117.5869 433.8107,162.5213 475.0507,187.9113" fill="none" id="Client-to-UC1" style="stroke:#181818;stroke-width:1;"/><polygon fill="#181818" points="480.16,191.0569,474.5931,182.9322,475.9022,188.4355,470.399,189.7447,480.16,191.0569" style="stroke:#181818;stroke-width:1;"/></g><!--link Client to UC2--><g class="link" data-entity-1="Client" data-entity-2="UC2" data-source-line="13" data-uid="lnk10" id="link_Client_UC2"><path d="M282.38,94.2269 C246.91,115.3469 179.0353,155.7573 134.4453,182.3073" fill="none" id="Client-to-UC2" style="stroke:#181818;stroke-width:1;"/><polygon fill="#181818" points="129.29,185.3769,139.0694,184.2093,133.5861,182.8189,134.9766,177.3356,129.29,185.3769" style="stroke:#181818;stroke-width:1;"/></g><!--link Client to UC3--><g class="link" data-entity-1="Client" data-entity-2="UC3" data-source-line="14" data-uid="lnk11" id="link_Client_UC3"><path d="M302.99,119.3069 C302.99,141.8769 302.99,163.7169 302.99,182.0269" fill="none" id="Client-to-UC3" style="stroke:#181818;stroke-width:1;"/><polygon fill="#181818" points="302.99,188.0269,306.99,179.0269,302.99,183.0269,298.99,179.0269,302.99,188.0269" style="stroke:#181818;stroke-width:1;"/></g><!--link Gestionnaire to UC1--><g class="link" data-entity-1="Gestionnaire" data-entity-2="UC1" data-source-line="16" data-uid="lnk12" id="link_Gestionnaire_UC1"><path d="M662.89,110.1469 C623.07,135.0369 571.4679,167.2867 538.5579,187.8567" fill="none" id="Gestionnaire-to-UC1" style="stroke:#181818;stroke-width:1;"/><polygon fill="#181818" points="533.47,191.0369,543.2219,189.6586,537.7099,188.3868,538.9818,182.8747,533.47,191.0369" style="stroke:#181818;stroke-width:1;"/></g><!--link Gestionnaire to UC4--><g class="link" data-entity-1="Gestionnaire" data-entity-2="UC4" data-source-line="17" data-uid="lnk13" id="link_Gestionnaire_UC4"><path d="M707.99,119.3069 C707.99,142.0169 707.99,164.0769 707.99,182.3769" fill="none" id="Gestionnaire-to-UC4" style="stroke:#181818;stroke-width:1;"/><polygon fill="#181818" points="707.99,188.3769,711.99,179.3769,707.99,183.3769,703.99,179.3769,707.99,188.3769" style="stroke:#181818;stroke-width:1;"/></g><!--link Gestionnaire to UC5--><g class="link" data-entity-1="Gestionnaire" data-entity-2="UC5" data-source-line="18" data-uid="lnk14" id="link_Gestionnaire_UC5"><path d="M753.05,103.9769 C797.11,125.5169 858.8095,155.682 905.6795,178.592" fill="none" id="Gestionnaire-to-UC5" style="stroke:#181818;stroke-width:1;"/><polygon fill="#181818" points="911.07,181.2269,904.7408,173.6809,906.5779,179.0312,901.2277,180.8682,911.07,181.2269" style="stroke:#181818;stroke-width:1;"/></g><!--SRC=[RP2z3i8m38JtF8N50WmLei2AX8h44y34OXf3ZPgas0dFJu7o9phUwJkVxSYn9bWpdWIT8oYsaC66D7BmO8V9WyCJAdjZi8n1eAYPVEn41tfa8MEIKebAC2Y2rrH74cWasCHH1u0AssBwOLRdaEu49cZGCydUZwvOixrxPOLnt6NoJsONMA1YRQlvakZ9lMRF-lejQdK8ABQ3vdyBJ5omV6px9vgQHjZzRxqmvdarPDdoSSMFp7_bp9ZljxmpFUQyprpS0000]--></g></svg>