<svg xmlns="http://www.w3.org/2000/svg" xmlns:xlink="http://www.w3.org/1999/xlink" contentStyleType="text/css" data-diagram-type="CLASS" height="1102px" preserveAspectRatio="none" style="width:957px;height:1102px;background:#FFFFFF;" version="1.1" viewBox="0 0 957 1102" width="957px" zoomAndPan="magnify"><title>Diagramme de classes</title><defs/><g><g class="title" data-source-line="1"><text fill="#000000" font-family="sans-serif" font-size="14" font-weight="bold" lengthAdjust="spacing" textLength="177.2148" x="383.0304" y="22.9951">Diagramme de classes</text></g><!--class MaisonMere--><g class="entity" data-entity="MaisonMere" data-source-line="3" data-uid="ent0002" id="entity_MaisonMere"><rect fill="#F1F1F1" height="194.6719" rx="2.5" ry="2.5" style="stroke:#181818;stroke-width:0.5;" width="284.501" x="7" y="44.2969"/><ellipse cx="102.8296" cy="60.2969" fill="#ADD1B2" rx="11" ry="11" style="stroke:#181818;stroke-width:1;"/><path d="M105.7983,65.9375 Q105.2202,66.2344 104.5796,66.375 Q103.939,66.5313 103.2358,66.5313 Q100.7358,66.5313 99.4077,64.8906 Q98.0952,63.2344 98.0952,60.1094 Q98.0952,56.9844 99.4077,55.3281 Q100.7358,53.6719 103.2358,53.6719 Q103.939,53.6719 104.5796,53.8281 Q105.2358,53.9844 105.7983,54.2813 L105.7983,57 Q105.1733,56.4219 104.5796,56.1563 Q103.9858,55.875 103.3608,55.875 Q102.0171,55.875 101.3296,56.9531 Q100.6421,58.0156 100.6421,60.1094 Q100.6421,62.2031 101.3296,63.2813 Q102.0171,64.3438 103.3608,64.3438 Q103.9858,64.3438 104.5796,64.0781 Q105.1733,63.7969 105.7983,63.2188 L105.7983,65.9375 Z " fill="#000000"/><text fill="#000000" font-family="sans-serif" font-size="14" lengthAdjust="spacing" textLength="84.3418" x="123.3296" y="65.1436">MaisonMere</text><line style="stroke:#181818;stroke-width:0.5;" x1="8" x2="290.501" y1="76.2969" y2="76.2969"/><ellipse cx="18" cy="89.9453" fill="none" rx="3" ry="3" style="stroke:#038048;stroke-width:1;"/><text fill="#000000" font-family="sans-serif" font-size="14" lengthAdjust="spacing" textLength="12.7764" x="27" y="93.292">id</text><ellipse cx="18" cy="106.2422" fill="none" rx="3" ry="3" style="stroke:#038048;stroke-width:1;"/><text fill="#000000" font-family="sans-serif" font-size="14" lengthAdjust="spacing" textLength="31.0762" x="27" y="109.5889">nom</text><line style="stroke:#181818;stroke-width:1;" x1="8" x2="290.501" y1="116.8906" y2="116.8906"/><ellipse cx="18" cy="130.5391" fill="#84BE84" rx="3" ry="3" style="stroke:#038048;stroke-width:1;"/><text fill="#000000" font-family="sans-serif" font-size="14" lengthAdjust="spacing" textLength="165.2178" x="27" y="133.8857">creerProduit(p: Produit)</text><ellipse cx="18" cy="146.8359" fill="#84BE84" rx="3" ry="3" style="stroke:#038048;stroke-width:1;"/><text fill="#000000" font-family="sans-serif" font-size="14" lengthAdjust="spacing" textLength="213.2813" x="27" y="150.1826">mettreAJourProduit(p: Produit)</text><ellipse cx="18" cy="163.1328" fill="#84BE84" rx="3" ry="3" style="stroke:#038048;stroke-width:1;"/><text fill="#000000" font-family="sans-serif" font-size="14" lengthAdjust="spacing" textLength="200.375" x="27" y="166.4795">supprimerProduit(p: Produit)</text><ellipse cx="18" cy="179.4297" fill="#84BE84" rx="3" ry="3" style="stroke:#038048;stroke-width:1;"/><text fill="#000000" font-family="sans-serif" font-size="14" lengthAdjust="spacing" textLength="170.3857" x="27" y="182.7764">genererRapportVentes()</text><ellipse cx="18" cy="195.7266" fill="#84BE84" rx="3" ry="3" style="stroke:#038048;stroke-width:1;"/><text fill="#000000" font-family="sans-serif" font-size="14" lengthAdjust="spacing" textLength="153.4873" x="27" y="199.0732">visualiserDashboard()</text><ellipse cx="18" cy="212.0234" fill="#84BE84" rx="3" ry="3" style="stroke:#038048;stroke-width:1;"/><text fill="#000000" font-family="sans-serif" font-size="14" lengthAdjust="spacing" textLength="258.501" x="27" y="215.3701">accepterRestock(demande: Restock)</text><ellipse cx="18" cy="228.3203" fill="#84BE84" rx="3" ry="3" style="stroke:#038048;stroke-width:1;"/><text fill="#000000" font-family="sans-serif" font-size="14" lengthAdjust="spacing" textLength="247.0029" x="27" y="231.667">refuserRestock(demande: Restock)</text></g><!--class Magasin--><g class="entity" data-entity="Magasin" data-source-line="16" data-uid="ent0003" id="entity_Magasin"><rect fill="#F1F1F1" height="145.7813" rx="2.5" ry="2.5" style="stroke:#181818;stroke-width:0.5;" width="302.0557" x="648.22" y="315.9669"/><ellipse cx="765.9075" cy="331.9669" fill="#ADD1B2" rx="11" ry="11" style="stroke:#181818;stroke-width:1;"/><path d="M768.8763,337.6075 Q768.2981,337.9044 767.6575,338.045 Q767.0169,338.2012 766.3138,338.2012 Q763.8138,338.2012 762.4856,336.5606 Q761.1731,334.9044 761.1731,331.7794 Q761.1731,328.6544 762.4856,326.9981 Q763.8138,325.3419 766.3138,325.3419 Q767.0169,325.3419 767.6575,325.4981 Q768.3138,325.6544 768.8763,325.9512 L768.8763,328.67 Q768.2513,328.0919 767.6575,327.8262 Q767.0638,327.545 766.4388,327.545 Q765.095,327.545 764.4075,328.6231 Q763.72,329.6856 763.72,331.7794 Q763.72,333.8731 764.4075,334.9512 Q765.095,336.0137 766.4388,336.0137 Q767.0638,336.0137 767.6575,335.7481 Q768.2513,335.4669 768.8763,334.8887 L768.8763,337.6075 Z " fill="#000000"/><text fill="#000000" font-family="sans-serif" font-size="14" lengthAdjust="spacing" textLength="58.1807" x="786.4075" y="336.8136">Magasin</text><line style="stroke:#181818;stroke-width:0.5;" x1="649.22" x2="949.2757" y1="347.9669" y2="347.9669"/><ellipse cx="659.22" cy="361.6153" fill="none" rx="3" ry="3" style="stroke:#038048;stroke-width:1;"/><text fill="#000000" font-family="sans-serif" font-size="14" lengthAdjust="spacing" textLength="12.7764" x="668.22" y="364.962">id</text><ellipse cx="659.22" cy="377.9122" fill="none" rx="3" ry="3" style="stroke:#038048;stroke-width:1;"/><text fill="#000000" font-family="sans-serif" font-size="14" lengthAdjust="spacing" textLength="31.0762" x="668.22" y="381.2589">nom</text><ellipse cx="659.22" cy="394.2091" fill="none" rx="3" ry="3" style="stroke:#038048;stroke-width:1;"/><text fill="#000000" font-family="sans-serif" font-size="14" lengthAdjust="spacing" textLength="55.0361" x="668.22" y="397.5557">adresse</text><line style="stroke:#181818;stroke-width:1;" x1="649.22" x2="949.2757" y1="404.8575" y2="404.8575"/><ellipse cx="659.22" cy="418.5059" fill="#84BE84" rx="3" ry="3" style="stroke:#038048;stroke-width:1;"/><text fill="#000000" font-family="sans-serif" font-size="14" lengthAdjust="spacing" textLength="114.7207" x="668.22" y="421.8526">consulterStock()</text><ellipse cx="659.22" cy="434.8028" fill="#84BE84" rx="3" ry="3" style="stroke:#038048;stroke-width:1;"/><text fill="#000000" font-family="sans-serif" font-size="14" lengthAdjust="spacing" textLength="265.5283" x="668.22" y="438.1495">demanderRestock(p: Produit, qte: int)</text><ellipse cx="659.22" cy="451.0997" fill="#84BE84" rx="3" ry="3" style="stroke:#038048;stroke-width:1;"/><text fill="#000000" font-family="sans-serif" font-size="14" lengthAdjust="spacing" textLength="276.0557" x="668.22" y="454.4464">consulterEtatRestock(restock: Restock)</text></g><!--class Produit--><g class="entity" data-entity="Produit" data-source-line="26" data-uid="ent0004" id="entity_Produit"><rect fill="#F1F1F1" height="113.1875" rx="2.5" ry="2.5" style="stroke:#181818;stroke-width:0.5;" width="103.8408" x="371.33" y="982.7169"/><ellipse cx="396.2023" cy="998.7169" fill="#ADD1B2" rx="11" ry="11" style="stroke:#181818;stroke-width:1;"/><path d="M399.1711,1004.3575 Q398.5929,1004.6544 397.9523,1004.795 Q397.3117,1004.9512 396.6086,1004.9512 Q394.1086,1004.9512 392.7804,1003.3106 Q391.4679,1001.6544 391.4679,998.5294 Q391.4679,995.4044 392.7804,993.7481 Q394.1086,992.0919 396.6086,992.0919 Q397.3117,992.0919 397.9523,992.2481 Q398.6086,992.4044 399.1711,992.7012 L399.1711,995.42 Q398.5461,994.8419 397.9523,994.5762 Q397.3586,994.295 396.7336,994.295 Q395.3898,994.295 394.7023,995.3731 Q394.0148,996.4356 394.0148,998.5294 Q394.0148,1000.6231 394.7023,1001.7012 Q395.3898,1002.7637 396.7336,1002.7637 Q397.3586,1002.7637 397.9523,1002.4981 Q398.5461,1002.2169 399.1711,1001.6387 L399.1711,1004.3575 Z " fill="#000000"/><text fill="#000000" font-family="sans-serif" font-size="14" lengthAdjust="spacing" textLength="49.9023" x="412.3962" y="1003.5636">Produit</text><line style="stroke:#181818;stroke-width:0.5;" x1="372.33" x2="474.1708" y1="1014.7169" y2="1014.7169"/><ellipse cx="382.33" cy="1028.3653" fill="none" rx="3" ry="3" style="stroke:#038048;stroke-width:1;"/><text fill="#000000" font-family="sans-serif" font-size="14" lengthAdjust="spacing" textLength="12.7764" x="391.33" y="1031.712">id</text><ellipse cx="382.33" cy="1044.6622" fill="none" rx="3" ry="3" style="stroke:#038048;stroke-width:1;"/><text fill="#000000" font-family="sans-serif" font-size="14" lengthAdjust="spacing" textLength="31.0762" x="391.33" y="1048.0089">nom</text><ellipse cx="382.33" cy="1060.9591" fill="none" rx="3" ry="3" style="stroke:#038048;stroke-width:1;"/><text fill="#000000" font-family="sans-serif" font-size="14" lengthAdjust="spacing" textLength="26.8174" x="391.33" y="1064.3057">prix</text><ellipse cx="382.33" cy="1077.2559" fill="none" rx="3" ry="3" style="stroke:#038048;stroke-width:1;"/><text fill="#000000" font-family="sans-serif" font-size="14" lengthAdjust="spacing" textLength="77.8408" x="391.33" y="1080.6026">description</text><line style="stroke:#181818;stroke-width:0.5;" x1="372.33" x2="474.1708" y1="1087.9044" y2="1087.9044"/></g><!--class Stock--><g class="entity" data-entity="Stock" data-source-line="33" data-uid="ent0005" id="entity_Stock"><rect fill="#F1F1F1" height="80.5938" rx="2.5" ry="2.5" style="stroke:#181818;stroke-width:0.5;" width="223.9004" x="667.3" y="698.2369"/><ellipse cx="755.6271" cy="714.2369" fill="#ADD1B2" rx="11" ry="11" style="stroke:#181818;stroke-width:1;"/><path d="M758.5959,719.8775 Q758.0178,720.1744 757.3771,720.315 Q756.7365,720.4712 756.0334,720.4712 Q753.5334,720.4712 752.2053,718.8306 Q750.8928,717.1744 750.8928,714.0494 Q750.8928,710.9244 752.2053,709.2681 Q753.5334,707.6119 756.0334,707.6119 Q756.7365,707.6119 757.3771,707.7681 Q758.0334,707.9244 758.5959,708.2212 L758.5959,710.94 Q757.9709,710.3619 757.3771,710.0962 Q756.7834,709.815 756.1584,709.815 Q754.8146,709.815 754.1271,710.8931 Q753.4396,711.9556 753.4396,714.0494 Q753.4396,716.1431 754.1271,717.2212 Q754.8146,718.2837 756.1584,718.2837 Q756.7834,718.2837 757.3771,718.0181 Q757.9709,717.7369 758.5959,717.1587 L758.5959,719.8775 Z " fill="#000000"/><text fill="#000000" font-family="sans-serif" font-size="14" lengthAdjust="spacing" textLength="38.7461" x="776.1271" y="719.0836">Stock</text><line style="stroke:#181818;stroke-width:0.5;" x1="668.3" x2="890.2004" y1="730.2369" y2="730.2369"/><ellipse cx="678.3" cy="743.8853" fill="none" rx="3" ry="3" style="stroke:#038048;stroke-width:1;"/><text fill="#000000" font-family="sans-serif" font-size="14" lengthAdjust="spacing" textLength="58.6934" x="687.3" y="747.232">quantite</text><line style="stroke:#181818;stroke-width:1;" x1="668.3" x2="890.2004" y1="754.5337" y2="754.5337"/><ellipse cx="678.3" cy="768.1822" fill="#84BE84" rx="3" ry="3" style="stroke:#038048;stroke-width:1;"/><text fill="#000000" font-family="sans-serif" font-size="14" lengthAdjust="spacing" textLength="197.9004" x="687.3" y="771.5289">verifierDisponibilite(qte: int)</text></g><!--class Restock--><g class="entity" data-entity="Restock" data-source-line="39" data-uid="ent0006" id="entity_Restock"><rect fill="#F1F1F1" height="129.4844" rx="2.5" ry="2.5" style="stroke:#181818;stroke-width:0.5;" width="347.3232" x="175.59" y="538.7469"/><ellipse cx="317.2546" cy="554.7469" fill="#ADD1B2" rx="11" ry="11" style="stroke:#181818;stroke-width:1;"/><path d="M320.2233,560.3875 Q319.6452,560.6844 319.0046,560.825 Q318.3639,560.9812 317.6608,560.9812 Q315.1608,560.9812 313.8327,559.3406 Q312.5202,557.6844 312.5202,554.5594 Q312.5202,551.4344 313.8327,549.7781 Q315.1608,548.1219 317.6608,548.1219 Q318.3639,548.1219 319.0046,548.2781 Q319.6608,548.4344 320.2233,548.7312 L320.2233,551.45 Q319.5983,550.8719 319.0046,550.6062 Q318.4108,550.325 317.7858,550.325 Q316.4421,550.325 315.7546,551.4031 Q315.0671,552.4656 315.0671,554.5594 Q315.0671,556.6531 315.7546,557.7312 Q316.4421,558.7937 317.7858,558.7937 Q318.4108,558.7937 319.0046,558.5281 Q319.5983,558.2469 320.2233,557.6687 L320.2233,560.3875 Z " fill="#000000"/><text fill="#000000" font-family="sans-serif" font-size="14" lengthAdjust="spacing" textLength="55.4941" x="337.7546" y="559.5936">Restock</text><line style="stroke:#181818;stroke-width:0.5;" x1="176.59" x2="521.9132" y1="570.7469" y2="570.7469"/><ellipse cx="186.59" cy="584.3953" fill="none" rx="3" ry="3" style="stroke:#038048;stroke-width:1;"/><text fill="#000000" font-family="sans-serif" font-size="14" lengthAdjust="spacing" textLength="12.7764" x="195.59" y="587.742">id</text><ellipse cx="186.59" cy="600.6922" fill="none" rx="3" ry="3" style="stroke:#038048;stroke-width:1;"/><text fill="#000000" font-family="sans-serif" font-size="14" lengthAdjust="spacing" textLength="31.5684" x="195.59" y="604.0389">date</text><ellipse cx="186.59" cy="616.9891" fill="#84BE84" rx="3" ry="3" style="stroke:#038048;stroke-width:1;"/><text fill="#000000" font-family="sans-serif" font-size="14" lengthAdjust="spacing" textLength="321.3232" x="195.59" y="620.3357">statut  // ("en attente", "accept&#233;e", "refus&#233;e")</text><ellipse cx="186.59" cy="633.2859" fill="none" rx="3" ry="3" style="stroke:#038048;stroke-width:1;"/><text fill="#000000" font-family="sans-serif" font-size="14" lengthAdjust="spacing" textLength="58.6934" x="195.59" y="636.6326">quantite</text><line style="stroke:#181818;stroke-width:1;" x1="176.59" x2="521.9132" y1="643.9344" y2="643.9344"/><ellipse cx="186.59" cy="657.5828" fill="#84BE84" rx="3" ry="3" style="stroke:#038048;stroke-width:1;"/><text fill="#000000" font-family="sans-serif" font-size="14" lengthAdjust="spacing" textLength="118.7813" x="195.59" y="660.9295">consulterStatut()</text></g><!--class Client--><g class="entity" data-entity="Client" data-source-line="48" data-uid="ent0007" id="entity_Client"><rect fill="#F1F1F1" height="129.4844" rx="2.5" ry="2.5" style="stroke:#181818;stroke-width:0.5;" width="391.1758" x="221.66" y="324.1169"/><ellipse cx="392.7328" cy="340.1169" fill="#ADD1B2" rx="11" ry="11" style="stroke:#181818;stroke-width:1;"/><path d="M395.7015,345.7575 Q395.1234,346.0544 394.4828,346.195 Q393.8421,346.3512 393.139,346.3512 Q390.639,346.3512 389.3109,344.7106 Q387.9984,343.0544 387.9984,339.9294 Q387.9984,336.8044 389.3109,335.1481 Q390.639,333.4919 393.139,333.4919 Q393.8421,333.4919 394.4828,333.6481 Q395.139,333.8044 395.7015,334.1012 L395.7015,336.82 Q395.0765,336.2419 394.4828,335.9762 Q393.889,335.695 393.264,335.695 Q391.9203,335.695 391.2328,336.7731 Q390.5453,337.8356 390.5453,339.9294 Q390.5453,342.0231 391.2328,343.1012 Q391.9203,344.1637 393.264,344.1637 Q393.889,344.1637 394.4828,343.8981 Q395.0765,343.6169 395.7015,343.0387 L395.7015,345.7575 Z " fill="#000000"/><text fill="#000000" font-family="sans-serif" font-size="14" lengthAdjust="spacing" textLength="40.5303" x="413.2328" y="344.9636">Client</text><line style="stroke:#181818;stroke-width:0.5;" x1="222.66" x2="611.8358" y1="356.1169" y2="356.1169"/><ellipse cx="232.66" cy="369.7653" fill="none" rx="3" ry="3" style="stroke:#038048;stroke-width:1;"/><text fill="#000000" font-family="sans-serif" font-size="14" lengthAdjust="spacing" textLength="12.7764" x="241.66" y="373.112">id</text><ellipse cx="232.66" cy="386.0622" fill="none" rx="3" ry="3" style="stroke:#038048;stroke-width:1;"/><text fill="#000000" font-family="sans-serif" font-size="14" lengthAdjust="spacing" textLength="31.0762" x="241.66" y="389.4089">nom</text><ellipse cx="232.66" cy="402.3591" fill="none" rx="3" ry="3" style="stroke:#038048;stroke-width:1;"/><text fill="#000000" font-family="sans-serif" font-size="14" lengthAdjust="spacing" textLength="38.6094" x="241.66" y="405.7057">email</text><line style="stroke:#181818;stroke-width:1;" x1="222.66" x2="611.8358" y1="413.0075" y2="413.0075"/><ellipse cx="232.66" cy="426.6559" fill="#84BE84" rx="3" ry="3" style="stroke:#038048;stroke-width:1;"/><text fill="#000000" font-family="sans-serif" font-size="14" lengthAdjust="spacing" textLength="365.1758" x="241.66" y="430.0026">acheter(produits: List&lt;Produit&gt;, magasin: Magasin)</text><ellipse cx="232.66" cy="442.9528" fill="#84BE84" rx="3" ry="3" style="stroke:#038048;stroke-width:1;"/><text fill="#000000" font-family="sans-serif" font-size="14" lengthAdjust="spacing" textLength="123.4844" x="241.66" y="446.2995">consulterAchats()</text></g><!--class Vente--><g class="entity" data-entity="Vente" data-source-line="57" data-uid="ent0008" id="entity_Vente"><rect fill="#F1F1F1" height="96.8906" rx="2.5" ry="2.5" style="stroke:#181818;stroke-width:0.5;" width="126.9941" x="557.75" y="555.0469"/><ellipse cx="596.9727" cy="571.0469" fill="#ADD1B2" rx="11" ry="11" style="stroke:#181818;stroke-width:1;"/><path d="M599.9414,576.6875 Q599.3633,576.9844 598.7227,577.125 Q598.082,577.2812 597.3789,577.2812 Q594.8789,577.2812 593.5508,575.6406 Q592.2383,573.9844 592.2383,570.8594 Q592.2383,567.7344 593.5508,566.0781 Q594.8789,564.4219 597.3789,564.4219 Q598.082,564.4219 598.7227,564.5781 Q599.3789,564.7344 599.9414,565.0312 L599.9414,567.75 Q599.3164,567.1719 598.7227,566.9062 Q598.1289,566.625 597.5039,566.625 Q596.1602,566.625 595.4727,567.7031 Q594.7852,568.7656 594.7852,570.8594 Q594.7852,572.9531 595.4727,574.0312 Q596.1602,575.0937 597.5039,575.0937 Q598.1289,575.0937 598.7227,574.8281 Q599.3164,574.5469 599.9414,573.9687 L599.9414,576.6875 Z " fill="#000000"/><text fill="#000000" font-family="sans-serif" font-size="14" lengthAdjust="spacing" textLength="41.166" x="616.3555" y="575.8936">Vente</text><line style="stroke:#181818;stroke-width:0.5;" x1="558.75" x2="683.7441" y1="587.0469" y2="587.0469"/><ellipse cx="568.75" cy="600.6953" fill="none" rx="3" ry="3" style="stroke:#038048;stroke-width:1;"/><text fill="#000000" font-family="sans-serif" font-size="14" lengthAdjust="spacing" textLength="12.7764" x="577.75" y="604.042">id</text><ellipse cx="568.75" cy="616.9922" fill="none" rx="3" ry="3" style="stroke:#038048;stroke-width:1;"/><text fill="#000000" font-family="sans-serif" font-size="14" lengthAdjust="spacing" textLength="31.5684" x="577.75" y="620.3389">date</text><line style="stroke:#181818;stroke-width:1;" x1="558.75" x2="683.7441" y1="627.6406" y2="627.6406"/><ellipse cx="568.75" cy="641.2891" fill="#84BE84" rx="3" ry="3" style="stroke:#038048;stroke-width:1;"/><text fill="#000000" font-family="sans-serif" font-size="14" lengthAdjust="spacing" textLength="100.9941" x="577.75" y="644.6357">calculerTotal()</text></g><!--class LigneVente--><g class="entity" data-entity="LigneVente" data-source-line="64" data-uid="ent0009" id="entity_LigneVente"><rect fill="#F1F1F1" height="96.8906" rx="2.5" ry="2.5" style="stroke:#181818;stroke-width:0.5;" width="160.6133" x="475.94" y="808.8269"/><ellipse cx="513.1631" cy="824.8269" fill="#ADD1B2" rx="11" ry="11" style="stroke:#181818;stroke-width:1;"/><path d="M516.1319,830.4675 Q515.5538,830.7644 514.9131,830.905 Q514.2725,831.0613 513.5694,831.0613 Q511.0694,831.0613 509.7413,829.4206 Q508.4288,827.7644 508.4288,824.6394 Q508.4288,821.5144 509.7413,819.8581 Q511.0694,818.2019 513.5694,818.2019 Q514.2725,818.2019 514.9131,818.3581 Q515.5694,818.5144 516.1319,818.8113 L516.1319,821.53 Q515.5069,820.9519 514.9131,820.6863 Q514.3194,820.405 513.6944,820.405 Q512.3506,820.405 511.6631,821.4831 Q510.9756,822.5456 510.9756,824.6394 Q510.9756,826.7331 511.6631,827.8113 Q512.3506,828.8738 513.6944,828.8738 Q514.3194,828.8738 514.9131,828.6081 Q515.5069,828.3269 516.1319,827.7488 L516.1319,830.4675 Z " fill="#000000"/><text fill="#000000" font-family="sans-serif" font-size="14" lengthAdjust="spacing" textLength="79.2285" x="532.1016" y="829.6736">LigneVente</text><line style="stroke:#181818;stroke-width:0.5;" x1="476.94" x2="635.5533" y1="840.8269" y2="840.8269"/><ellipse cx="486.94" cy="854.4753" fill="none" rx="3" ry="3" style="stroke:#038048;stroke-width:1;"/><text fill="#000000" font-family="sans-serif" font-size="14" lengthAdjust="spacing" textLength="58.6934" x="495.94" y="857.822">quantite</text><ellipse cx="486.94" cy="870.7722" fill="none" rx="3" ry="3" style="stroke:#038048;stroke-width:1;"/><text fill="#000000" font-family="sans-serif" font-size="14" lengthAdjust="spacing" textLength="82.1543" x="495.94" y="874.1189">prixUnitaire</text><line style="stroke:#181818;stroke-width:1;" x1="476.94" x2="635.5533" y1="881.4206" y2="881.4206"/><ellipse cx="486.94" cy="895.0691" fill="#84BE84" rx="3" ry="3" style="stroke:#038048;stroke-width:1;"/><text fill="#000000" font-family="sans-serif" font-size="14" lengthAdjust="spacing" textLength="134.6133" x="495.94" y="898.4157">calculerSousTotal()</text></g><!--reverse link MaisonMere to Magasin--><g class="link" data-entity-1="MaisonMere" data-entity-2="Magasin" data-source-line="72" data-uid="lnk10" id="link_MaisonMere_Magasin"><path codeLine="72" d="M303.1669,195.6095 C399.2969,229.2395 517.36,271.6569 630.25,315.9669 C636.04,318.2369 641.92,320.5869 647.86,322.9769" fill="none" id="MaisonMere-backto-Magasin" style="stroke:#181818;stroke-width:1;"/><polygon fill="none" points="291.84,191.6469,296.1826,197.4038,303.1669,195.6095,298.8243,189.8525,291.84,191.6469" style="stroke:#181818;stroke-width:1;"/><text fill="#000000" font-family="sans-serif" font-size="13" lengthAdjust="spacing" textLength="62.6831" x="552.25" y="282.0338">supervise</text><text fill="#000000" font-family="sans-serif" font-size="13" lengthAdjust="spacing" textLength="8.271" x="299.4055" y="190.9093">1</text><text fill="#000000" font-family="sans-serif" font-size="13" lengthAdjust="spacing" textLength="6.5" x="633.9123" y="316.2635">*</text></g><!--reverse link MaisonMere to Produit--><g class="link" data-entity-1="MaisonMere" data-entity-2="Produit" data-source-line="73" data-uid="lnk11" id="link_MaisonMere_Produit"><path codeLine="73" d="M92.531,250.4585 C73.471,294.4685 61.25,336.9769 61.25,387.8569 C61.25,387.8569 61.25,387.8569 61.25,858.2769 C61.25,994.9669 270.75,1027.8769 371,1035.7969" fill="none" id="MaisonMere-backto-Produit" style="stroke:#181818;stroke-width:1;"/><polygon fill="none" points="97.3,239.4469,91.245,243.3631,92.531,250.4585,98.5861,246.5424,97.3,239.4469" style="stroke:#181818;stroke-width:1;"/><text fill="#000000" font-family="sans-serif" font-size="13" lengthAdjust="spacing" textLength="29.5928" x="62.25" y="608.0638">gere</text><text fill="#000000" font-family="sans-serif" font-size="13" lengthAdjust="spacing" textLength="8.271" x="85.3755" y="258.9233">1</text><text fill="#000000" font-family="sans-serif" font-size="13" lengthAdjust="spacing" textLength="6.5" x="356.9218" y="1031.2559">*</text></g><!--reverse link MaisonMere to Restock--><g class="link" data-entity-1="MaisonMere" data-entity-2="Restock" data-source-line="74" data-uid="lnk12" id="link_MaisonMere_Restock"><path codeLine="74" d="M133.5711,251.2169 C128.1411,317.5569 131.39,393.6169 167.25,461.7469 C183.16,491.9769 208.74,517.7069 235.76,538.5769" fill="none" id="MaisonMere-backto-Restock" style="stroke:#181818;stroke-width:1;"/><polygon fill="none" points="134.55,239.2569,130.0739,244.9106,133.5711,251.2169,138.0472,245.5632,134.55,239.2569" style="stroke:#181818;stroke-width:1;"/><text fill="#000000" font-family="sans-serif" font-size="13" lengthAdjust="spacing" textLength="35.1152" x="168.25" y="393.4238">traite</text><text fill="#000000" font-family="sans-serif" font-size="13" lengthAdjust="spacing" textLength="8.271" x="125.1866" y="259.0487">1</text><text fill="#000000" font-family="sans-serif" font-size="13" lengthAdjust="spacing" textLength="6.5" x="217.0461" y="527.7309">*</text></g><!--reverse link Magasin to Stock--><g class="link" data-entity-1="Magasin" data-entity-2="Stock" data-source-line="76" data-uid="lnk13" id="link_Magasin_Stock"><path codeLine="76" d="M794.4206,473.8771 C790.3006,545.4771 784.82,640.6769 781.52,698.0069" fill="none" id="Magasin-backto-Stock" style="stroke:#181818;stroke-width:1;"/><polygon fill="none" points="795.11,461.8969,790.7719,467.6572,794.4206,473.8771,798.7587,468.1168,795.11,461.8969" style="stroke:#181818;stroke-width:1;"/><text fill="#000000" font-family="sans-serif" font-size="13" lengthAdjust="spacing" textLength="53.9995" x="793.25" y="504.8138">poss&#232;de</text><text fill="#000000" font-family="sans-serif" font-size="13" lengthAdjust="spacing" textLength="8.271" x="786.3223" y="481.8984">1</text><text fill="#000000" font-family="sans-serif" font-size="13" lengthAdjust="spacing" textLength="6.5" x="775.4405" y="687.1303">*</text></g><!--reverse link Stock to Produit--><g class="link" data-entity-1="Stock" data-entity-2="Produit" data-source-line="77" data-uid="lnk14" id="link_Stock_Produit"><path codeLine="77" d="M749.6727,789.2483 C727.0427,825.3983 696.33,868.5569 654.25,905.7169 C599.66,953.9369 524.81,993.0069 475.29,1015.9469" fill="none" id="Stock-backto-Produit" style="stroke:#181818;stroke-width:1;"/><polygon fill="none" points="756.04,779.0769,749.4659,782.0401,749.6727,789.2483,756.2468,786.285,756.04,779.0769" style="stroke:#181818;stroke-width:1;"/><text fill="#000000" font-family="sans-serif" font-size="13" lengthAdjust="spacing" textLength="60.0679" x="735.25" y="861.8438">concerne</text><text fill="#000000" font-family="sans-serif" font-size="13" lengthAdjust="spacing" textLength="6.5" x="745.9026" y="798.8112">*</text><text fill="#000000" font-family="sans-serif" font-size="13" lengthAdjust="spacing" textLength="8.271" x="483.1896" y="1008.6829">1</text></g><!--reverse link Magasin to Restock--><g class="link" data-entity-1="Magasin" data-entity-2="Restock" data-source-line="79" data-uid="lnk15" id="link_Magasin_Restock"><path codeLine="79" d="M636.9897,466.5325 C584.2797,491.4325 536.37,514.0769 485.01,538.3469" fill="none" id="Magasin-backto-Restock" style="stroke:#181818;stroke-width:1;"/><polygon fill="none" points="647.84,461.4069,640.7063,460.3529,636.9897,466.5325,644.1234,467.5864,647.84,461.4069" style="stroke:#181818;stroke-width:1;"/><text fill="#000000" font-family="sans-serif" font-size="13" lengthAdjust="spacing" textLength="43.4941" x="575.25" y="504.8138">envoie</text><text fill="#000000" font-family="sans-serif" font-size="13" lengthAdjust="spacing" textLength="8.271" x="631.8338" y="461.8313">1</text><text fill="#000000" font-family="sans-serif" font-size="13" lengthAdjust="spacing" textLength="6.5" x="493.5578" y="527.4758">*</text></g><!--reverse link Restock to Produit--><g class="link" data-entity-1="Restock" data-entity-2="Produit" data-source-line="80" data-uid="lnk16" id="link_Restock_Produit"><path codeLine="80" d="M360.1222,680.5612 C369.0322,741.6412 381.6,824.1869 396.25,905.7169 C400.78,930.9269 406.35,958.6969 411.25,982.2969" fill="none" id="Restock-backto-Produit" style="stroke:#181818;stroke-width:1;"/><polygon fill="none" points="358.39,668.6869,355.298,675.2014,360.1222,680.5612,363.2142,674.0467,358.39,668.6869" style="stroke:#181818;stroke-width:1;"/><text fill="#000000" font-family="sans-serif" font-size="13" lengthAdjust="spacing" textLength="60.0679" x="397.25" y="861.8438">concerne</text><text fill="#000000" font-family="sans-serif" font-size="13" lengthAdjust="spacing" textLength="6.5" x="353.0488" y="688.2576">*</text><text fill="#000000" font-family="sans-serif" font-size="13" lengthAdjust="spacing" textLength="8.271" x="401.3165" y="971.5092">1</text></g><!--reverse link Client to Vente--><g class="link" data-entity-1="Client" data-entity-2="Vente" data-source-line="82" data-uid="lnk17" id="link_Client_Vente"><path codeLine="82" d="M438.1269,465.1919 C445.7169,484.7219 452.15,493.7669 467.25,508.7469 C492.16,533.4569 509.96,521.0669 540.25,538.7469 C548.44,543.5269 556.71,549.0669 564.68,554.8369" fill="none" id="Client-backto-Vente" style="stroke:#181818;stroke-width:1;"/><polygon fill="none" points="433.78,454.0069,432.2251,461.0483,438.1269,465.1919,439.6818,458.1504,433.78,454.0069" style="stroke:#181818;stroke-width:1;"/><text fill="#000000" font-family="sans-serif" font-size="13" lengthAdjust="spacing" textLength="53.6313" x="468.25" y="504.8138">effectue</text><text fill="#000000" font-family="sans-serif" font-size="13" lengthAdjust="spacing" textLength="8.271" x="427.0863" y="473.5724">1</text><text fill="#000000" font-family="sans-serif" font-size="13" lengthAdjust="spacing" textLength="6.5" x="550.3385" y="544.0163">*</text></g><!--reverse link Magasin to Vente--><g class="link" data-entity-1="Magasin" data-entity-2="Vente" data-source-line="83" data-uid="lnk18" id="link_Magasin_Vente"><path codeLine="83" d="M705.7836,470.621 C696.2436,480.181 695.48,481.6769 687.25,491.7469 C671.53,510.9869 657.04,534.3669 645.66,554.6669" fill="none" id="Magasin-backto-Vente" style="stroke:#181818;stroke-width:1;"/><polygon fill="none" points="714.26,462.1269,707.1904,463.5485,705.7836,470.621,712.8532,469.1994,714.26,462.1269" style="stroke:#181818;stroke-width:1;"/><text fill="#000000" font-family="sans-serif" font-size="13" lengthAdjust="spacing" textLength="53.6313" x="688.25" y="504.8138">effectue</text><text fill="#000000" font-family="sans-serif" font-size="13" lengthAdjust="spacing" textLength="8.271" x="697.7913" y="481.8984">1</text><text fill="#000000" font-family="sans-serif" font-size="13" lengthAdjust="spacing" textLength="6.5" x="642.7063" y="543.8224">*</text></g><!--reverse link Vente to LigneVente--><g class="link" data-entity-1="Vente" data-entity-2="LigneVente" data-source-line="85" data-uid="lnk19" id="link_Vente_LigneVente"><path codeLine="85" d="M600.5276,663.7519 C595.6576,678.3719 594.35,683.1869 590.25,698.2369 C580.27,734.9269 571.33,777.0569 565.12,808.5769" fill="none" id="Vente-backto-LigneVente" style="stroke:#181818;stroke-width:1;"/><polygon fill="none" points="604.32,652.3669,598.6288,656.7952,600.5276,663.7519,606.2188,659.3235,604.32,652.3669" style="stroke:#181818;stroke-width:1;"/><text fill="#000000" font-family="sans-serif" font-size="13" lengthAdjust="spacing" textLength="58.7412" x="591.25" y="743.0938">compose</text><text fill="#000000" font-family="sans-serif" font-size="13" lengthAdjust="spacing" textLength="8.271" x="593.5261" y="672.018">1</text><text fill="#000000" font-family="sans-serif" font-size="13" lengthAdjust="spacing" textLength="6.5" x="559.9811" y="797.7506">*</text></g><!--reverse link LigneVente to Produit--><g class="link" data-entity-1="LigneVente" data-entity-2="Produit" data-source-line="86" data-uid="lnk20" id="link_LigneVente_Produit"><path codeLine="86" d="M513.8287,915.698 C496.5087,939.138 482.68,957.8669 464.61,982.3269" fill="none" id="LigneVente-backto-Produit" style="stroke:#181818;stroke-width:1;"/><polygon fill="none" points="520.96,906.0469,514.1773,908.4953,513.8287,915.698,520.6114,913.2495,520.96,906.0469" style="stroke:#181818;stroke-width:1;"/><text fill="#000000" font-family="sans-serif" font-size="13" lengthAdjust="spacing" textLength="60.0679" x="498.25" y="948.7838">concerne</text><text fill="#000000" font-family="sans-serif" font-size="13" lengthAdjust="spacing" textLength="6.5" x="509.8488" y="925.6846">*</text><text fill="#000000" font-family="sans-serif" font-size="13" lengthAdjust="spacing" textLength="8.271" x="461.1797" y="971.5429">1</text></g><!--SRC=[XLF1Rjim3BtxAmHVvYunYbwDOK2nxZAqmB1ikxCoan2J9LUaWm73_cVxZlxOPDcELSJkBh52Fhv7Faf2Ob3T4HmyD0sg6fKsm8oSPV6W7e3OsGVqg7vbIcsexd-jQyAdBFkpzeZ-itTrHrAqbHgFLtskGH6FjvzSjuRWhcqzDQiC1xH1st-1jdLUlgCLv29cJiGT66BqTy37HmU-7XAWDROIQf35wHz5ZGtO6Yir1YB8uxxZrp2_PmSEm6Glnzz0xJ5uDJlXB7ScAEyYPzGPYSz2ytXRzIH1aEmmwBdueu1CQ3zybzeQMHRQ2dx-7AHPUsg5d9tBOcj3qLC7LaZc_a_eQK_1J-BMMNea4xB5tEMPPEmcrQuX4cquTD-9KjVNgiZHAX3fTvPlLJxivVbl_1FzxyzNYwqaLlPyHIB-mL1WN9WxE4tcp03wYA6-Q0UVk5BtnF9kjEtzLZN3NgjfmI-tSAkF89pgnhktCFBOC1ZT6VHVdO19o-xfO36fJKQDc_fcIO3y9TFETPomlIdBCXXleDydgr1gDRLWa4DTcINlDB_9bGlW_6r-lhoL2WyDVNWpk0QTBbIb3Y6rXffMNodnq8-HJH8fQZTYMiVy_AV6R0ZqgGYvIUM2vngzNQ6Q1T6U764s1Vv7DjwJb6jOGs3Qxr5BXuk25w1iYAIOPAczP1Fcn2m9ljxRFm00]--></g></svg>