<svg xmlns="http://www.w3.org/2000/svg" xmlns:xlink="http://www.w3.org/1999/xlink" contentStyleType="text/css" data-diagram-type="CLASS" height="593px" preserveAspectRatio="none" style="width:781px;height:593px;background:#FFFFFF;" version="1.1" viewBox="0 0 781 593" width="781px" zoomAndPan="magnify"><title>MDD &#8212; LOG430 Magasin</title><defs/><g><g class="title" data-source-line="1"><text fill="#000000" font-family="sans-serif" font-size="14" font-weight="bold" lengthAdjust="spacing" textLength="193.2793" x="287.0022" y="22.9951">MDD &#8212; LOG430 Magasin</text></g><!--class Produit--><g class="entity" data-entity="Produit" data-source-line="3" data-uid="ent0002" id="entity_Produit"><rect fill="#F1F1F1" height="113.1875" rx="2.5" ry="2.5" style="stroke:#181818;stroke-width:0.5;" width="153.1963" x="37.2" y="44.2969"/><ellipse cx="84.597" cy="60.2969" fill="#ADD1B2" rx="11" ry="11" style="stroke:#181818;stroke-width:1;"/><path d="M88.7063,66.2969 L80.9876,66.2969 L80.9876,53.9063 L88.7063,53.9063 L88.7063,56.0625 L83.4407,56.0625 L83.4407,58.7344 L88.2063,58.7344 L88.2063,60.8906 L83.4407,60.8906 L83.4407,64.1406 L88.7063,64.1406 L88.7063,66.2969 Z " fill="#000000"/><text fill="#000000" font-family="sans-serif" font-size="14" lengthAdjust="spacing" textLength="49.9023" x="105.097" y="65.1436">Produit</text><line style="stroke:#181818;stroke-width:0.5;" x1="38.2" x2="189.3963" y1="76.2969" y2="76.2969"/><ellipse cx="48.2" cy="89.9453" fill="none" rx="3" ry="3" style="stroke:#038048;stroke-width:1;"/><text fill="#000000" font-family="sans-serif" font-size="14" lengthAdjust="spacing" textLength="79.3994" x="57.2" y="93.292">id: int &#171;PK&#187;</text><text fill="#000000" font-family="sans-serif" font-size="14" lengthAdjust="spacing" textLength="80.4316" x="57.2" y="109.5889">nom: string</text><text fill="#000000" font-family="sans-serif" font-size="14" lengthAdjust="spacing" textLength="67.4365" x="57.2" y="125.8857">prix: float</text><text fill="#000000" font-family="sans-serif" font-size="14" lengthAdjust="spacing" textLength="127.1963" x="57.2" y="142.1826">description: string</text><line style="stroke:#181818;stroke-width:0.5;" x1="38.2" x2="189.3963" y1="149.4844" y2="149.4844"/></g><!--class Magasin--><g class="entity" data-entity="Magasin" data-source-line="10" data-uid="ent0003" id="entity_Magasin"><rect fill="#F1F1F1" height="96.8906" rx="2.5" ry="2.5" style="stroke:#181818;stroke-width:0.5;" width="130.3916" x="411.6" y="52.4469"/><ellipse cx="444.6949" cy="68.4469" fill="#ADD1B2" rx="11" ry="11" style="stroke:#181818;stroke-width:1;"/><path d="M448.8043,74.4469 L441.0855,74.4469 L441.0855,62.0563 L448.8043,62.0563 L448.8043,64.2125 L443.5387,64.2125 L443.5387,66.8844 L448.3043,66.8844 L448.3043,69.0406 L443.5387,69.0406 L443.5387,72.2906 L448.8043,72.2906 L448.8043,74.4469 Z " fill="#000000"/><text fill="#000000" font-family="sans-serif" font-size="14" lengthAdjust="spacing" textLength="58.1807" x="462.716" y="73.2936">Magasin</text><line style="stroke:#181818;stroke-width:0.5;" x1="412.6" x2="540.9916" y1="84.4469" y2="84.4469"/><ellipse cx="422.6" cy="98.0953" fill="none" rx="3" ry="3" style="stroke:#038048;stroke-width:1;"/><text fill="#000000" font-family="sans-serif" font-size="14" lengthAdjust="spacing" textLength="79.3994" x="431.6" y="101.442">id: int &#171;PK&#187;</text><text fill="#000000" font-family="sans-serif" font-size="14" lengthAdjust="spacing" textLength="80.4316" x="431.6" y="117.7389">nom: string</text><text fill="#000000" font-family="sans-serif" font-size="14" lengthAdjust="spacing" textLength="104.3916" x="431.6" y="134.0357">adresse: string</text><line style="stroke:#181818;stroke-width:0.5;" x1="412.6" x2="540.9916" y1="141.3375" y2="141.3375"/></g><!--class Stock--><g class="entity" data-entity="Stock" data-source-line="16" data-uid="ent0004" id="entity_Stock"><rect fill="#F1F1F1" height="113.1875" rx="2.5" ry="2.5" style="stroke:#181818;stroke-width:0.5;" width="164.9883" x="383.3" y="250.7769"/><ellipse cx="442.1711" cy="266.7769" fill="#ADD1B2" rx="11" ry="11" style="stroke:#181818;stroke-width:1;"/><path d="M446.2805,272.7769 L438.5617,272.7769 L438.5617,260.3863 L446.2805,260.3863 L446.2805,262.5425 L441.0148,262.5425 L441.0148,265.2144 L445.7805,265.2144 L445.7805,267.3706 L441.0148,267.3706 L441.0148,270.6206 L446.2805,270.6206 L446.2805,272.7769 Z " fill="#000000"/><text fill="#000000" font-family="sans-serif" font-size="14" lengthAdjust="spacing" textLength="38.7461" x="462.6711" y="271.6236">Stock</text><line style="stroke:#181818;stroke-width:0.5;" x1="384.3" x2="547.2883" y1="282.7769" y2="282.7769"/><ellipse cx="394.3" cy="296.4253" fill="none" rx="3" ry="3" style="stroke:#038048;stroke-width:1;"/><text fill="#000000" font-family="sans-serif" font-size="14" lengthAdjust="spacing" textLength="79.3994" x="403.3" y="299.772">id: int &#171;PK&#187;</text><text fill="#000000" font-family="sans-serif" font-size="14" lengthAdjust="spacing" textLength="138.9883" x="403.3" y="316.0689">magasinId: int &#171;FK&#187;</text><text fill="#000000" font-family="sans-serif" font-size="14" lengthAdjust="spacing" textLength="129.5957" x="403.3" y="332.3657">produitId: int &#171;FK&#187;</text><text fill="#000000" font-family="sans-serif" font-size="14" lengthAdjust="spacing" textLength="86.1123" x="403.3" y="348.6626">quantite: int</text><line style="stroke:#181818;stroke-width:0.5;" x1="384.3" x2="547.2883" y1="355.9644" y2="355.9644"/></g><!--class Client--><g class="entity" data-entity="Client" data-source-line="23" data-uid="ent0005" id="entity_Client"><rect fill="#F1F1F1" height="80.5938" rx="2.5" ry="2.5" style="stroke:#181818;stroke-width:0.5;" width="182.9736" x="591.31" y="60.5869"/><ellipse cx="658.2817" cy="76.5869" fill="#ADD1B2" rx="11" ry="11" style="stroke:#181818;stroke-width:1;"/><path d="M662.3911,82.5869 L654.6723,82.5869 L654.6723,70.1963 L662.3911,70.1963 L662.3911,72.3525 L657.1254,72.3525 L657.1254,75.0244 L661.8911,75.0244 L661.8911,77.1806 L657.1254,77.1806 L657.1254,80.4306 L662.3911,80.4306 L662.3911,82.5869 Z " fill="#000000"/><text fill="#000000" font-family="sans-serif" font-size="14" lengthAdjust="spacing" textLength="40.5303" x="678.7817" y="81.4336">Client</text><line style="stroke:#181818;stroke-width:0.5;" x1="592.31" x2="773.2836" y1="92.5869" y2="92.5869"/><ellipse cx="602.31" cy="106.2353" fill="none" rx="3" ry="3" style="stroke:#038048;stroke-width:1;"/><text fill="#000000" font-family="sans-serif" font-size="14" lengthAdjust="spacing" textLength="79.3994" x="611.31" y="109.582">id: int &#171;PK&#187;</text><text fill="#000000" font-family="sans-serif" font-size="14" lengthAdjust="spacing" textLength="156.9736" x="611.31" y="125.8789">nom: string &#171;UNIQUE&#187;</text><line style="stroke:#181818;stroke-width:0.5;" x1="592.31" x2="773.2836" y1="133.1806" y2="133.1806"/></g><!--class Vente--><g class="entity" data-entity="Vente" data-source-line="28" data-uid="ent0006" id="entity_Vente"><rect fill="#F1F1F1" height="129.4844" rx="2.5" ry="2.5" style="stroke:#181818;stroke-width:0.5;" width="164.9883" x="583.3" y="242.6269"/><ellipse cx="640.9611" cy="258.6269" fill="#ADD1B2" rx="11" ry="11" style="stroke:#181818;stroke-width:1;"/><path d="M645.0705,264.6269 L637.3518,264.6269 L637.3518,252.2363 L645.0705,252.2363 L645.0705,254.3925 L639.8049,254.3925 L639.8049,257.0644 L644.5705,257.0644 L644.5705,259.2206 L639.8049,259.2206 L639.8049,262.4706 L645.0705,262.4706 L645.0705,264.6269 Z " fill="#000000"/><text fill="#000000" font-family="sans-serif" font-size="14" lengthAdjust="spacing" textLength="41.166" x="661.4611" y="263.4736">Vente</text><line style="stroke:#181818;stroke-width:0.5;" x1="584.3" x2="747.2883" y1="274.6269" y2="274.6269"/><ellipse cx="594.3" cy="288.2753" fill="none" rx="3" ry="3" style="stroke:#038048;stroke-width:1;"/><text fill="#000000" font-family="sans-serif" font-size="14" lengthAdjust="spacing" textLength="79.3994" x="603.3" y="291.622">id: int &#171;PK&#187;</text><text fill="#000000" font-family="sans-serif" font-size="14" lengthAdjust="spacing" textLength="138.9883" x="603.3" y="307.9189">magasinId: int &#171;FK&#187;</text><text fill="#000000" font-family="sans-serif" font-size="14" lengthAdjust="spacing" textLength="117.7012" x="603.3" y="324.2157">clientId: int &#171;FK&#187;</text><text fill="#000000" font-family="sans-serif" font-size="14" lengthAdjust="spacing" textLength="103.9336" x="603.3" y="340.5126">date: datetime</text><text fill="#000000" font-family="sans-serif" font-size="14" lengthAdjust="spacing" textLength="72.6318" x="603.3" y="356.8095">total: float</text><line style="stroke:#181818;stroke-width:0.5;" x1="584.3" x2="747.2883" y1="364.1113" y2="364.1113"/></g><!--class LigneVente--><g class="entity" data-entity="LigneVente" data-source-line="36" data-uid="ent0007" id="entity_LigneVente"><rect fill="#F1F1F1" height="129.4844" rx="2.5" ry="2.5" style="stroke:#181818;stroke-width:0.5;" width="155.5957" x="7" y="457.2669"/><ellipse cx="41.9652" cy="473.2669" fill="#ADD1B2" rx="11" ry="11" style="stroke:#181818;stroke-width:1;"/><path d="M46.0746,479.2669 L38.3559,479.2669 L38.3559,466.8763 L46.0746,466.8763 L46.0746,469.0325 L40.809,469.0325 L40.809,471.7044 L45.5746,471.7044 L45.5746,473.8606 L40.809,473.8606 L40.809,477.1106 L46.0746,477.1106 L46.0746,479.2669 Z " fill="#000000"/><text fill="#000000" font-family="sans-serif" font-size="14" lengthAdjust="spacing" textLength="79.2285" x="60.402" y="478.1136">LigneVente</text><line style="stroke:#181818;stroke-width:0.5;" x1="8" x2="161.5957" y1="489.2669" y2="489.2669"/><ellipse cx="18" cy="502.9153" fill="none" rx="3" ry="3" style="stroke:#038048;stroke-width:1;"/><text fill="#000000" font-family="sans-serif" font-size="14" lengthAdjust="spacing" textLength="79.3994" x="27" y="506.262">id: int &#171;PK&#187;</text><text fill="#000000" font-family="sans-serif" font-size="14" lengthAdjust="spacing" textLength="119.123" x="27" y="522.5589">venteId: int &#171;FK&#187;</text><text fill="#000000" font-family="sans-serif" font-size="14" lengthAdjust="spacing" textLength="129.5957" x="27" y="538.8557">produitId: int &#171;FK&#187;</text><text fill="#000000" font-family="sans-serif" font-size="14" lengthAdjust="spacing" textLength="86.1123" x="27" y="555.1526">quantite: int</text><text fill="#000000" font-family="sans-serif" font-size="14" lengthAdjust="spacing" textLength="122.7734" x="27" y="571.4495">prixUnitaire: float</text><line style="stroke:#181818;stroke-width:0.5;" x1="8" x2="161.5957" y1="578.7513" y2="578.7513"/></g><!--class Restock--><g class="entity" data-entity="Restock" data-source-line="44" data-uid="ent0008" id="entity_Restock"><rect fill="#F1F1F1" height="145.7813" rx="2.5" ry="2.5" style="stroke:#181818;stroke-width:0.5;" width="167.0664" x="181.26" y="234.4769"/><ellipse cx="232.7961" cy="250.4769" fill="#ADD1B2" rx="11" ry="11" style="stroke:#181818;stroke-width:1;"/><path d="M236.9055,256.4769 L229.1868,256.4769 L229.1868,244.0863 L236.9055,244.0863 L236.9055,246.2425 L231.6399,246.2425 L231.6399,248.9144 L236.4055,248.9144 L236.4055,251.0706 L231.6399,251.0706 L231.6399,254.3206 L236.9055,254.3206 L236.9055,256.4769 Z " fill="#000000"/><text fill="#000000" font-family="sans-serif" font-size="14" lengthAdjust="spacing" textLength="55.4941" x="253.2961" y="255.3236">Restock</text><line style="stroke:#181818;stroke-width:0.5;" x1="182.26" x2="347.3264" y1="266.4769" y2="266.4769"/><ellipse cx="192.26" cy="280.1253" fill="none" rx="3" ry="3" style="stroke:#038048;stroke-width:1;"/><text fill="#000000" font-family="sans-serif" font-size="14" lengthAdjust="spacing" textLength="79.3994" x="201.26" y="283.472">id: int &#171;PK&#187;</text><text fill="#000000" font-family="sans-serif" font-size="14" lengthAdjust="spacing" textLength="129.5957" x="201.26" y="299.7689">produitId: int &#171;FK&#187;</text><text fill="#000000" font-family="sans-serif" font-size="14" lengthAdjust="spacing" textLength="138.9883" x="201.26" y="316.0657">magasinId: int &#171;FK&#187;</text><text fill="#000000" font-family="sans-serif" font-size="14" lengthAdjust="spacing" textLength="86.1123" x="201.26" y="332.3626">quantite: int</text><text fill="#000000" font-family="sans-serif" font-size="14" lengthAdjust="spacing" textLength="90.5693" x="201.26" y="348.6595">statut: string</text><text fill="#000000" font-family="sans-serif" font-size="14" lengthAdjust="spacing" textLength="141.0664" x="201.26" y="364.9564">createdAt: datetime</text><line style="stroke:#181818;stroke-width:0.5;" x1="182.26" x2="347.3264" y1="372.2581" y2="372.2581"/></g><!--link Magasin to Stock--><g class="link" data-entity-1="Magasin" data-entity-2="Stock" data-source-line="54" data-uid="lnk9" id="link_Magasin_Stock"><path codeLine="54" d="M473.7901,157.8153 C472.1701,187.9153 471.4637,200.9027 469.7737,232.4227" fill="none" id="Magasin-Stock" style="stroke:#181818;stroke-width:1;"/><line style="stroke:#181818;stroke-width:1;" x1="470.0108" x2="477.9992" y1="153.6061" y2="154.0361"/><line style="stroke:#181818;stroke-width:1;" x1="469.8496" x2="477.838" y1="156.6018" y2="157.0317"/><line style="stroke:#181818;stroke-width:1;" x1="473.7901" x2="474.22" y1="157.8153" y2="149.8269"/><line style="stroke:#181818;stroke-width:1;" x1="469.2383" x2="474.8014" y1="242.4083" y2="250.7181"/><line style="stroke:#181818;stroke-width:1;" x1="469.2383" x2="462.8186" y1="242.4083" y2="250.0756"/><line style="stroke:#181818;stroke-width:1;" x1="469.2383" x2="468.81" y1="242.4083" y2="250.3969"/><ellipse cx="469.5596" cy="236.417" fill="none" rx="4" ry="4" style="stroke:#181818;stroke-width:1;"/><polygon fill="#000000" points="476.5312,201.0361,479.9521,192.162,474.0828,191.8461,476.5312,201.0361" style="stroke:#000000;stroke-width:1;"/><text fill="#000000" font-family="sans-serif" font-size="13" lengthAdjust="spacing" textLength="53.9995" x="485.8" y="200.5438">poss&#232;de</text></g><!--link Produit to Stock--><g class="link" data-entity-1="Produit" data-entity-2="Stock" data-source-line="55" data-uid="lnk10" id="link_Produit_Stock"><path codeLine="55" d="M196.1052,162.1912 C220.8552,178.7812 242.41,191.5069 269.8,204.4769 C310.2,223.6169 325.8,214.5169 365.8,234.4769 C375.08,239.1169 369.2779,234.8501 378.3379,240.6601" fill="none" id="Produit-Stock" style="stroke:#181818;stroke-width:1;"/><line style="stroke:#181818;stroke-width:1;" x1="190.5555" x2="195.0098" y1="163.2866" y2="156.6414"/><line style="stroke:#181818;stroke-width:1;" x1="193.0474" x2="197.5017" y1="164.957" y2="158.3118"/><line style="stroke:#181818;stroke-width:1;" x1="196.1052" x2="189.46" y1="162.1912" y2="157.7369"/><line style="stroke:#181818;stroke-width:1;" x1="386.7557" x2="396.7289" y1="246.0583" y2="245.3262"/><line style="stroke:#181818;stroke-width:1;" x1="386.7557" x2="390.2511" y1="246.0583" y2="255.4276"/><line style="stroke:#181818;stroke-width:1;" x1="386.7557" x2="393.49" y1="246.0583" y2="250.3769"/><ellipse cx="381.7051" cy="242.8194" fill="none" rx="4" ry="4" style="stroke:#181818;stroke-width:1;"/><polygon fill="#000000" points="279.3923,198.0207,272.247,191.7442,269.9224,197.1428,279.3923,198.0207" style="stroke:#000000;stroke-width:1;"/><text fill="#000000" font-family="sans-serif" font-size="13" lengthAdjust="spacing" textLength="77.8604" x="283.8" y="200.5438">stock&#233; dans</text></g><!--link Magasin to Vente--><g class="link" data-entity-1="Magasin" data-entity-2="Vente" data-source-line="57" data-uid="lnk11" id="link_Magasin_Vente"><path codeLine="57" d="M526.5392,155.7026 C552.0692,183.3326 566.8431,199.3077 594.5131,229.2477" fill="none" id="Magasin-Vente" style="stroke:#181818;stroke-width:1;"/><line style="stroke:#181818;stroke-width:1;" x1="520.8867" x2="526.7624" y1="155.4793" y2="150.0502"/><line style="stroke:#181818;stroke-width:1;" x1="522.9226" x2="528.7984" y1="157.6827" y2="152.2536"/><line style="stroke:#181818;stroke-width:1;" x1="526.5392" x2="521.11" y1="155.7026" y2="149.8269"/><line style="stroke:#181818;stroke-width:1;" x1="601.3003" x2="611.1364" y1="236.5917" y2="238.3946"/><line style="stroke:#181818;stroke-width:1;" x1="601.3003" x2="602.3236" y1="236.5917" y2="246.5392"/><line style="stroke:#181818;stroke-width:1;" x1="601.3003" x2="606.73" y1="236.5917" y2="242.4669"/><ellipse cx="597.2279" cy="232.1853" fill="none" rx="4" ry="4" style="stroke:#181818;stroke-width:1;"/><polygon fill="#000000" points="579.1937,199.7152,575.2127,191.0779,570.8961,195.0675,579.1937,199.7152" style="stroke:#000000;stroke-width:1;"/><text fill="#000000" font-family="sans-serif" font-size="13" lengthAdjust="spacing" textLength="43.3037" x="584.8" y="200.5438">r&#233;alise</text></g><!--link Client to Vente--><g class="link" data-entity-1="Client" data-entity-2="Vente" data-source-line="58" data-uid="lnk12" id="link_Client_Vente"><path codeLine="58" d="M678.8579,149.2894 C676.4779,177.9494 675.349,191.4586 672.599,224.5886" fill="none" id="Client-Vente" style="stroke:#181818;stroke-width:1;"/><line style="stroke:#181818;stroke-width:1;" x1="675.2027" x2="683.1752" y1="144.9721" y2="145.6342"/><line style="stroke:#181818;stroke-width:1;" x1="674.9544" x2="682.927" y1="147.9618" y2="148.6239"/><line style="stroke:#181818;stroke-width:1;" x1="678.8579" x2="679.52" y1="149.2894" y2="141.3169"/><line style="stroke:#181818;stroke-width:1;" x1="671.7718" x2="677.0894" y1="234.5543" y2="243.0232"/><line style="stroke:#181818;stroke-width:1;" x1="671.7718" x2="665.1306" y1="234.5543" y2="242.0305"/><line style="stroke:#181818;stroke-width:1;" x1="671.7718" x2="671.11" y1="234.5543" y2="242.5269"/><ellipse cx="672.2681" cy="228.5749" fill="none" rx="4" ry="4" style="stroke:#181818;stroke-width:1;"/><polygon fill="#000000" points="679.3858,201.0261,683.0639,192.2555,677.2063,191.7687,679.3858,201.0261" style="stroke:#000000;stroke-width:1;"/><text fill="#000000" font-family="sans-serif" font-size="13" lengthAdjust="spacing" textLength="53.6313" x="688.8" y="200.5438">effectue</text></g><!--link Vente to LigneVente--><g class="link" data-entity-1="Vente" data-entity-2="LigneVente" data-source-line="59" data-uid="lnk13" id="link_Vente_LigneVente"><path codeLine="59" d="M576.1668,374.9998 C570.4468,378.3498 571.56,377.4469 565.8,380.2669 C431.3,445.8969 278.0404,483.2871 180.3704,503.1071" fill="none" id="Vente-LigneVente" style="stroke:#181818;stroke-width:1;"/><line style="stroke:#181818;stroke-width:1;" x1="577.5969" x2="581.6399" y1="369.5268" y2="376.43"/><line style="stroke:#181818;stroke-width:1;" x1="575.0082" x2="579.0512" y1="371.0429" y2="377.9461"/><line style="stroke:#181818;stroke-width:1;" x1="576.1668" x2="583.07" y1="374.9998" y2="370.9569"/><line style="stroke:#181818;stroke-width:1;" x1="170.5702" x2="163.9232" y1="505.0959" y2="512.567"/><line style="stroke:#181818;stroke-width:1;" x1="170.5702" x2="161.5368" y1="505.0959" y2="500.8067"/><line style="stroke:#181818;stroke-width:1;" x1="170.5702" x2="162.73" y1="505.0959" y2="506.6869"/><ellipse cx="176.4503" cy="503.9026" fill="none" rx="4" ry="4" style="stroke:#181818;stroke-width:1;"/><polygon fill="#000000" points="491.043,420.373,500.5535,420.3837,498.7435,414.7915,491.043,420.373" style="stroke:#000000;stroke-width:1;"/><text fill="#000000" font-family="sans-serif" font-size="13" lengthAdjust="spacing" textLength="62.4102" x="504.8" y="423.3338">comporte</text></g><!--link Produit to LigneVente--><g class="link" data-entity-1="Produit" data-entity-2="LigneVente" data-source-line="60" data-uid="lnk14" id="link_Produit_LigneVente"><path codeLine="60" d="M90.4583,165.4389 C82.8083,188.7789 77.59,208.7869 73.8,234.4769 C62.61,310.3169 66.7871,380.7266 73.5471,439.0366" fill="none" id="Produit-LigneVente" style="stroke:#181818;stroke-width:1;"/><line style="stroke:#181818;stroke-width:1;" x1="87.9031" x2="95.5052" y1="160.3921" y2="162.8838"/><line style="stroke:#181818;stroke-width:1;" x1="86.9687" x2="94.5708" y1="163.2428" y2="165.7345"/><line style="stroke:#181818;stroke-width:1;" x1="90.4583" x2="92.95" y1="165.4389" y2="157.8369"/><line style="stroke:#181818;stroke-width:1;" x1="74.6987" x2="81.5801" y1="448.9701" y2="456.2259"/><line style="stroke:#181818;stroke-width:1;" x1="74.6987" x2="69.6599" y1="448.9701" y2="457.6078"/><line style="stroke:#181818;stroke-width:1;" x1="74.6987" x2="75.62" y1="448.9701" y2="456.9169"/><ellipse cx="74.0077" cy="443.01" fill="none" rx="4" ry="4" style="stroke:#181818;stroke-width:1;"/><polygon fill="#000000" points="78.4915,312.4238,81.9829,303.5772,76.1162,303.2146,78.4915,312.4238" style="stroke:#000000;stroke-width:1;"/><text fill="#000000" font-family="sans-serif" font-size="13" lengthAdjust="spacing" textLength="75.7847" x="87.8" y="311.9338">vendu dans</text></g><!--link Produit to Restock--><g class="link" data-entity-1="Produit" data-entity-2="Restock" data-source-line="62" data-uid="lnk15" id="link_Produit_Restock"><path codeLine="62" d="M101.6972,165.7986 C100.9772,181.6586 103.25,190.4369 110.8,204.4769 C111.93,206.5869 130.4898,219.0936 166.0398,242.3136" fill="none" id="Produit-Restock" style="stroke:#181818;stroke-width:1;"/><line style="stroke:#181818;stroke-width:1;" x1="97.8827" x2="105.8745" y1="161.6214" y2="161.9842"/><line style="stroke:#181818;stroke-width:1;" x1="97.7467" x2="105.7384" y1="164.6183" y2="164.9811"/><line style="stroke:#181818;stroke-width:1;" x1="101.6972" x2="102.06" y1="165.7986" y2="157.8069"/><line style="stroke:#181818;stroke-width:1;" x1="174.4122" x2="184.3911" y1="247.7821" y2="247.1335"/><line style="stroke:#181818;stroke-width:1;" x1="174.4122" x2="177.8289" y1="247.7821" y2="257.1803"/><line style="stroke:#181818;stroke-width:1;" x1="174.4122" x2="181.11" y1="247.7821" y2="252.1569"/><ellipse cx="169.3888" cy="244.501" fill="none" rx="4" ry="4" style="stroke:#181818;stroke-width:1;"/><polygon fill="#000000" points="119.018,199.8701,115.4459,191.0558,110.9472,194.8388,119.018,199.8701" style="stroke:#000000;stroke-width:1;"/><text fill="#000000" font-family="sans-serif" font-size="13" lengthAdjust="spacing" textLength="60.0679" x="124.8" y="200.5438">concerne</text></g><!--link Magasin to Restock--><g class="link" data-entity-1="Magasin" data-entity-2="Restock" data-source-line="63" data-uid="lnk16" id="link_Magasin_Restock"><path codeLine="63" d="M420.4433,155.2803 C407.5533,167.5403 399.54,175.2169 386.8,187.4769 C371.14,202.5569 367.3073,206.2207 351.4273,221.6807" fill="none" id="Magasin-Restock" style="stroke:#181818;stroke-width:1;"/><line style="stroke:#181818;stroke-width:1;" x1="420.5849" x2="426.0983" y1="149.6252" y2="155.422"/><line style="stroke:#181818;stroke-width:1;" x1="418.4111" x2="423.9246" y1="151.6928" y2="157.4895"/><line style="stroke:#181818;stroke-width:1;" x1="420.4433" x2="426.24" y1="155.2803" y2="149.7669"/><line style="stroke:#181818;stroke-width:1;" x1="344.2621" x2="342.7154" y1="228.6563" y2="238.536"/><line style="stroke:#181818;stroke-width:1;" x1="344.2621" x2="334.3446" y1="228.6563" y2="229.9378"/><line style="stroke:#181818;stroke-width:1;" x1="344.2621" x2="338.53" y1="228.6563" y2="234.2369"/><ellipse cx="348.5613" cy="224.4709" fill="none" rx="4" ry="4" style="stroke:#181818;stroke-width:1;"/><polygon fill="#000000" points="388.1968,199.5099,396.7526,195.3566,392.6774,191.1209,388.1968,199.5099" style="stroke:#000000;stroke-width:1;"/><text fill="#000000" font-family="sans-serif" font-size="13" lengthAdjust="spacing" textLength="61.3691" x="400.8" y="200.5438">demande</text></g><!--SRC=[dLFRIiGm47tlLmo-gCYYe4z55iGRubrPtqCokmosIKscegZWH_WHxdVid_Wb9cbtjzOjNbxAoSbmpidCb8apXDEzFVXuVOEJyyEjpGqu5IFXI2S9QYP-XAKBQrH9l0J2GOtXAG5O8vK2QORjxOlZVjypskGfEBQaH_vKM7f8OPWPmVwaq4bB1PFHivgNkKdj6arg_2iJeImwXuiahzd8soWOKOTSNfaTpVY3YY-gbtxZxqeHz37IJRlTZ3oCVXNyERyd1sT7buDzVz5Gkl40er14Vmmke_atMecGENoPSlG46nRPT3uDznCQQPn7c1yxSjo7kt-shrgIWIOMP751c2jqiodMk2D6bs5Nczf170ikkR5Pqg9lbjhXHjTyicMV8nDXZHsi2EUCfFgq3b9OHLfan9EnMqscU_pytEkPfteBKoYCSvDtXT1FfhzJgoA-SpBslbwsdxI5gccaO2TZx-M2KBrnhG8S3b5o6Gegghvlp3G5QVB2M5uGvqkP7xCgPubQbTFH13KjqUgWraezhr6O2ntU_ma0]--></g></svg>